<svg width="393" height="312" viewBox="0 0 393 312" fill="none" xmlns="http://www.w3.org/2000/svg">
<g clip-path="url(#clip0_34_95)">
<rect width="393" height="312" fill="white"/>
<rect width="181" height="156" fill="#111827"/>
<rect width="164" height="83" transform="translate(8 37)" fill="#111827"/>
<path d="M26.0044 64.2697C25.5 61.5 27.8539 57.2882 31.5044 55.7697C35.6666 54.0383 40.4885 55.2376 42.5044 59.2697C47.0044 68.2705 48.5 90.7303 51 94.5C53.5 98.2697 54.2415 98.9654 59.0044 98.7697C63.3363 98.5917 66.5044 97.5394 66.5044 92.2697C66.5044 87 61.0044 64.7691 62.5044 61.7697C64.0044 58.7703 66.2859 56.2615 70.0044 55.7697C74.1607 55.22 77.8766 56.9062 79.5044 60.7697C85.5 75 83.5 91.5006 90.5 95.5C96.4436 98.8959 100.004 98 106.004 98" stroke="#9EFF1E" stroke-width="7"/>
<path d="M106.004 95V101H110.5C110.5 101 112 98.5 116 98.5C120 98.5 122 101.5 122 101.5H136C136 101.5 138.004 98.5001 142.004 98.5001C146.004 98.5001 148.504 102 148.504 102H161.004V95H106.004Z" fill="#9EFF1E" stroke="#9EFF1E"/>
<path d="M30.0359 92.2631C29.6077 92.9167 29.4361 93.5041 29.5213 94.0252C29.5612 94.2699 29.6652 94.4596 29.8331 94.5943C29.9918 94.7224 30.1857 94.7678 30.4146 94.7304C30.6989 94.6839 30.9051 94.557 31.0334 94.3496C31.1603 94.1344 31.2773 93.7343 31.3844 93.1493C31.4758 92.567 31.5942 92.1505 31.7396 91.8997C31.9737 91.4967 32.3513 91.2527 32.8724 91.1675C33.6856 91.0347 34.3904 91.3046 34.9866 91.9773C35.5147 92.58 35.8645 93.4065 36.036 94.4565C36.2501 95.7672 36.0363 96.8154 35.3946 97.6011C34.914 98.1822 34.2671 98.5391 33.4538 98.672C32.8301 98.7739 32.2615 98.7168 31.7479 98.5007L31.2197 97.1279C31.8082 97.3561 32.3985 97.4218 32.9906 97.325C33.6144 97.2231 34.0677 96.9464 34.3506 96.4949C34.6414 96.0421 34.7255 95.4407 34.603 94.6906C34.4792 93.9327 34.2666 93.3757 33.9653 93.0196C33.7058 92.7215 33.4182 92.5983 33.1024 92.6499C32.9366 92.6769 32.814 92.7699 32.7345 92.9288C32.6459 93.0811 32.5614 93.3826 32.4811 93.8335C32.3485 94.5604 32.1733 95.0754 31.9553 95.3785C31.658 95.7918 31.2173 96.0462 30.633 96.1416C29.9382 96.2551 29.3581 96.1027 28.8925 95.6842C28.5332 95.3701 28.3141 94.9722 28.2355 94.4905C28.1039 93.6852 28.2817 93.0118 28.7687 92.4701L30.0359 92.2631ZM38.783 94.8225C38.8216 95.0593 38.7776 95.2611 38.6508 95.4277C38.5319 95.593 38.354 95.6951 38.1172 95.7337C37.8882 95.7711 37.691 95.7304 37.5257 95.6115C37.3604 95.4926 37.2584 95.3147 37.2197 95.0778C37.181 94.841 37.2178 94.6445 37.3301 94.4883C37.449 94.323 37.6269 94.221 37.8637 94.1823C38.3927 94.0959 38.6991 94.3093 38.783 94.8225ZM38.485 92.9987C38.5237 93.2355 38.4836 93.4366 38.3647 93.6019C38.2458 93.7673 38.064 93.8699 37.8192 93.9099C37.306 93.9937 37.0069 93.7751 36.9217 93.254C36.8831 93.0172 36.9199 92.8207 37.0322 92.6645C37.1511 92.4992 37.3289 92.3972 37.5658 92.3585C38.0948 92.2721 38.4012 92.4855 38.485 92.9987ZM30.798 85.5396L30.6239 84.4738L32.0569 84.2397L32.2542 85.4477C32.2981 85.7161 32.3032 85.9706 32.2695 86.2112C33.0442 86.19 33.6939 86.396 34.2186 86.829C34.6882 87.2225 34.9752 87.739 35.0797 88.3785C35.1609 88.8759 35.1139 89.3821 34.9386 89.8971L33.6359 90.1099C33.7978 89.6619 33.8465 89.2406 33.782 88.8458C33.7111 88.4116 33.5142 88.0992 33.1912 87.9088C32.8749 87.7092 32.468 87.65 31.9706 87.7313L28.1335 88.358L27.4656 87.4701L27.11 87.0054L27.1219 87.0034L27.1081 86.9935L30.0807 86.5079C30.3886 86.4576 30.5994 86.3584 30.713 86.2101C30.8186 86.0631 30.847 85.8397 30.798 85.5396ZM29.4779 77.4583L29.3154 76.4635L30.7484 76.2294L30.9128 77.2361C31.0147 77.8598 31.0295 78.3721 30.9572 78.773C30.8757 79.1673 30.6877 79.5547 30.3932 79.9352C31.1781 80.8202 31.6757 81.9062 31.8859 83.1931L32.1722 84.9459L30.7392 85.18L30.451 83.4154C30.224 82.0258 29.6289 80.9882 28.6658 80.3025C27.8139 80.9928 27.4506 81.7209 27.5757 82.4868C27.6788 83.1184 28.1351 83.7531 28.9446 84.391L27.63 84.6057C26.7953 84.0612 26.3096 83.3704 26.1729 82.5335C26.0723 81.9177 26.1993 81.2809 26.5539 80.6231C26.9085 79.9654 27.4635 79.3437 28.219 78.7583L28.8112 78.6616C28.9976 78.7608 29.2102 78.8963 29.449 79.068C29.5869 78.7213 29.5966 78.1847 29.4779 77.4583ZM32.5245 80.3287C32.4858 80.0919 32.5226 79.8954 32.6349 79.7392C32.7538 79.5739 32.9317 79.4719 33.1685 79.4332C33.6975 79.3468 34.0039 79.5602 34.0878 80.0734C34.1265 80.3102 34.0864 80.5113 33.9675 80.6767C33.8486 80.842 33.6667 80.9446 33.422 80.9846C33.193 81.022 32.9959 80.9813 32.8305 80.8624C32.6652 80.7435 32.5632 80.5656 32.5245 80.3287ZM24.3806 76.8467C24.4193 77.0836 24.3792 77.2847 24.2603 77.45C24.1414 77.6153 23.9596 77.718 23.7148 77.758C23.4859 77.7954 23.2887 77.7546 23.1234 77.6357C22.958 77.5168 22.856 77.3389 22.8173 77.1021C22.7786 76.8652 22.8194 76.6681 22.9396 76.5106C23.0506 76.3466 23.2245 76.2452 23.4614 76.2065C23.9904 76.1201 24.2968 76.3335 24.3806 76.8467ZM24.0846 75.0347C24.1233 75.2716 24.0832 75.4727 23.9643 75.638C23.8375 75.8046 23.6557 75.9073 23.4188 75.946C23.1899 75.9834 22.9927 75.9426 22.8274 75.8237C22.6608 75.6969 22.5588 75.5191 22.5214 75.2901C22.4827 75.0532 22.5234 74.8561 22.6436 74.6986C22.7546 74.5346 22.9285 74.4332 23.1654 74.3945C23.6944 74.3081 24.0008 74.5215 24.0846 75.0347ZM28.7432 72.9606L28.5691 71.8947L30.0021 71.6606L30.1994 72.8686C30.2936 73.445 30.2176 73.9478 29.9716 74.3771C30.3414 74.7057 30.5734 75.1583 30.6676 75.7346L30.8649 76.9426L29.4319 77.1767L29.2578 76.1108C29.2088 75.8108 29.1108 75.6079 28.9638 75.5022C28.809 75.3978 28.5776 75.3708 28.2697 75.4211L26.0787 75.779L25.0533 74.4144L28.0259 73.9289C28.3338 73.8786 28.5446 73.7793 28.6582 73.631C28.7639 73.4841 28.7922 73.2606 28.7432 72.9606ZM26.5404 71.0133C25.8299 71.1294 25.2371 70.9992 24.7622 70.6229C24.3517 70.2927 24.0967 69.8237 23.9974 69.2158C23.8697 68.4341 24.0586 67.7791 24.564 67.2507C24.985 66.801 25.5745 66.5142 26.3324 66.3904C27.2088 66.2472 27.9377 66.3673 28.5191 66.7506C29.0296 67.0968 29.3377 67.5936 29.4435 68.241C29.5467 68.8727 29.493 69.4124 29.2824 69.8602C29.6207 70.194 29.8336 70.6294 29.9213 71.1663L30.1187 72.3743L28.6856 72.6083L28.5115 71.5425C28.4625 71.2424 28.3645 71.0396 28.2176 70.9339C28.0627 70.8295 27.8313 70.8024 27.5234 70.8527L26.5404 71.0133ZM27.4692 69.3296C27.9113 69.2573 28.0943 68.9883 28.0182 68.5225C27.9228 67.9382 27.425 67.7196 26.525 67.8666C25.6644 68.0072 25.2837 68.3815 25.383 68.9894C25.4553 69.4316 25.7519 69.6101 26.273 69.525L27.4692 69.3296Z" fill="#9EFF1E"/>
<circle cx="116" cy="105" r="5" fill="#9EFF1E"/>
<circle cx="142" cy="105" r="5" fill="#9EFF1E"/>
<path d="M94.46 91V75.152H89.308V71.876H103.308V75.152H98.324V91H94.46ZM104.132 92.372V89.124C104.618 89.124 105.019 89.0867 105.336 89.012C105.654 88.9373 105.896 88.788 106.064 88.564C106.251 88.3213 106.372 87.976 106.428 87.528C106.503 87.0613 106.54 86.4547 106.54 85.708V71.876H110.404V87.444C110.404 88.564 110.274 89.46 110.012 90.132C109.751 90.7853 109.35 91.2707 108.808 91.588C108.286 91.924 107.632 92.1387 106.848 92.232C106.083 92.3253 105.178 92.372 104.132 92.372ZM112.414 91L117.286 71.876H124.034L128.878 91H125.014L123.95 87.136H117.258L116.25 91H112.414ZM117.874 84.028H123.39L121.234 75.012H120.058L117.874 84.028ZM130.987 91V71.876H138.463C139.993 71.876 141.272 72.072 142.299 72.464C143.344 72.856 144.119 73.5093 144.623 74.424C145.145 75.3387 145.407 76.58 145.407 78.148C145.407 79.5293 145.155 80.696 144.651 81.648C144.165 82.5813 143.419 83.272 142.411 83.72L145.407 91H141.347L138.827 84.588H134.851V91H130.987ZM134.851 81.424H138.547C139.256 81.424 139.825 81.2933 140.255 81.032C140.684 80.752 140.992 80.3693 141.179 79.884C141.365 79.38 141.459 78.8107 141.459 78.176C141.459 77.1307 141.216 76.3467 140.731 75.824C140.245 75.3013 139.489 75.04 138.463 75.04H134.851V81.424ZM148.241 91V71.876H160.953V75.096H152.105V79.744H159.273V82.908H152.105V87.78H160.953V91H148.241Z" fill="#9EFF1E"/>

</g>
<defs>
<clipPath id="clip0_34_95">
<rect width="180" height="160" fill="white"/>
</clipPath>
</defs>
</svg>
