<svg width="393" height="312" viewBox="0 0 393 312" fill="none" xmlns="http://www.w3.org/2000/svg">
<g clip-path="url(#clip0_34_95)">
<rect width="393" height="312" fill="white"/>
<rect width="181" height="156" fill="#252F3D"/>
<rect width="164" height="83" transform="translate(8 37)" fill="#252F3D"/>
<path d="M26.0044 64.2697C25.5 61.5 27.8539 57.2882 31.5044 55.7697C35.6666 54.0383 40.4885 55.2376 42.5044 59.2697C47.0044 68.2705 48.5 90.7303 51 94.5C53.5 98.2697 54.2415 98.9654 59.0044 98.7697C63.3363 98.5917 66.5044 97.5394 66.5044 92.2697C66.5044 87 61.0044 64.7691 62.5044 61.7697C64.0044 58.7703 66.2859 56.2615 70.0044 55.7697C74.1607 55.22 77.8766 56.9062 79.5044 60.7697C85.5 75 83.5 91.5006 90.5 95.5C96.4436 98.8959 100.004 98 106.004 98" stroke="#9EFF1E" stroke-width="7"/>
<path d="M106.004 95V101H110.5C110.5 101 112 98.5 116 98.5C120 98.5 122 101.5 122 101.5H136C136 101.5 138.004 98.5001 142.004 98.5001C146.004 98.5001 148.504 102 148.504 102H161.004V95H106.004Z" fill="#9EFF1E" stroke="#9EFF1E"/>
<path d="M30.0359 92.2631C29.6077 92.9167 29.4361 93.5041 29.5213 94.0252C29.5612 94.2699 29.6652 94.4596 29.8331 94.5943C29.9918 94.7224 30.1857 94.7678 30.4146 94.7304C30.6989 94.6839 30.9051 94.557 31.0334 94.3496C31.1603 94.1344 31.2773 93.7343 31.3844 93.1493C31.4758 92.567 31.5942 92.1505 31.7396 91.8997C31.9737 91.4967 32.3513 91.2527 32.8724 91.1675C33.6856 91.0347 34.3904 91.3046 34.9866 91.9773C35.5147 92.58 35.8645 93.4065 36.036 94.4565C36.2501 95.7672 36.0363 96.8154 35.3946 97.6011C34.914 98.1822 34.2671 98.5391 33.4538 98.672C32.8301 98.7739 32.2615 98.7168 31.7479 98.5007L31.2197 97.1279C31.8082 97.3561 32.3985 97.4218 32.9906 97.325C33.6144 97.2231 34.0677 96.9464 34.3506 96.4949C34.6414 96.0421 34.7255 95.4407 34.603 94.6906C34.4792 93.9327 34.2666 93.3757 33.9653 93.0196C33.7058 92.7215 33.4182 92.5983 33.1024 92.6499C32.9366 92.6769 32.814 92.7699 32.7345 92.9288C32.6459 93.0811 32.5614 93.3826 32.4811 93.8335C32.3485 94.5604 32.1733 95.0754 31.9553 95.3785C31.658 95.7918 31.2173 96.0462 30.633 96.1416C29.9382 96.2551 29.3581 96.1027 28.8925 95.6842C28.5332 95.3701 28.3141 94.9722 28.2355 94.4905C28.1039 93.6852 28.2817 93.0118 28.7687 92.4701L30.0359 92.2631ZM38.783 94.8225C38.8216 95.0593 38.7776 95.2611 38.6508 95.4277C38.5319 95.593 38.354 95.6951 38.1172 95.7337C37.8882 95.7711 37.691 95.7304 37.5257 95.6115C37.3604 95.4926 37.2584 95.3147 37.2197 95.0778C37.181 94.841 37.2178 94.6445 37.3301 94.4883C37.449 94.323 37.6269 94.221 37.8637 94.1823C38.3927 94.0959 38.6991 94.3093 38.783 94.8225ZM38.485 92.9987C38.5237 93.2355 38.4836 93.4366 38.3647 93.6019C38.2458 93.7673 38.064 93.8699 37.8192 93.9099C37.306 93.9937 37.0069 93.7751 36.9217 93.254C36.8831 93.0172 36.9199 92.8207 37.0322 92.6645C37.1511 92.4992 37.3289 92.3972 37.5658 92.3585C38.0948 92.2721 38.4012 92.4855 38.485 92.9987ZM30.798 85.5396L30.6239 84.4738L32.0569 84.2397L32.2542 85.4477C32.2981 85.7161 32.3032 85.9706 32.2695 86.2112C33.0442 86.19 33.6939 86.396 34.2186 86.829C34.6882 87.2225 34.9752 87.739 35.0797 88.3785C35.1609 88.8759 35.1139 89.3821 34.9386 89.8971L33.6359 90.1099C33.7978 89.6619 33.8465 89.2406 33.782 88.8458C33.7111 88.4116 33.5142 88.0992 33.1912 87.9088C32.8749 87.7092 32.468 87.65 31.9706 87.7313L28.1335 88.358L27.4656 87.4701L27.11 87.0054L27.1219 87.0034L27.1081 86.9935L30.0807 86.5079C30.3886 86.4576 30.5994 86.3584 30.713 86.2101C30.8186 86.0631 30.847 85.8397 30.798 85.5396ZM29.4779 77.4583L29.3154 76.4635L30.7484 76.2294L30.9128 77.2361C31.0147 77.8598 31.0295 78.3721 30.9572 78.773C30.8757 79.1673 30.6877 79.5547 30.3932 79.9352C31.1781 80.8202 31.6757 81.9062 31.8859 83.1931L32.1722 84.9459L30.7392 85.18L30.451 83.4154C30.224 82.0258 29.6289 80.9882 28.6658 80.3025C27.8139 80.9928 27.4506 81.7209 27.5757 82.4868C27.6788 83.1184 28.1351 83.7531 28.9446 84.391L27.63 84.6057C26.7953 84.0612 26.3096 83.3704 26.1729 82.5335C26.0723 81.9177 26.1993 81.2809 26.5539 80.6231C26.9085 79.9654 27.4635 79.3437 28.219 78.7583L28.8112 78.6616C28.9976 78.7608 29.2102 78.8963 29.449 79.068C29.5869 78.7213 29.5966 78.1847 29.4779 77.4583ZM32.5245 80.3287C32.4858 80.0919 32.5226 79.8954 32.6349 79.7392C32.7538 79.5739 32.9317 79.4719 33.1685 79.4332C33.6975 79.3468 34.0039 79.5602 34.0878 80.0734C34.1265 80.3102 34.0864 80.5113 33.9675 80.6767C33.8486 80.842 33.6667 80.9446 33.422 80.9846C33.193 81.022 32.9959 80.9813 32.8305 80.8624C32.6652 80.7435 32.5632 80.5656 32.5245 80.3287ZM24.3806 76.8467C24.4193 77.0836 24.3792 77.2847 24.2603 77.45C24.1414 77.6153 23.9596 77.718 23.7148 77.758C23.4859 77.7954 23.2887 77.7546 23.1234 77.6357C22.958 77.5168 22.856 77.3389 22.8173 77.1021C22.7786 76.8652 22.8194 76.6681 22.9396 76.5106C23.0506 76.3466 23.2245 76.2452 23.4614 76.2065C23.9904 76.1201 24.2968 76.3335 24.3806 76.8467ZM24.0846 75.0347C24.1233 75.2716 24.0832 75.4727 23.9643 75.638C23.8375 75.8046 23.6557 75.9073 23.4188 75.946C23.1899 75.9834 22.9927 75.9426 22.8274 75.8237C22.6608 75.6969 22.5588 75.5191 22.5214 75.2901C22.4827 75.0532 22.5234 74.8561 22.6436 74.6986C22.7546 74.5346 22.9285 74.4332 23.1654 74.3945C23.6944 74.3081 24.0008 74.5215 24.0846 75.0347ZM28.7432 72.9606L28.5691 71.8947L30.0021 71.6606L30.1994 72.8686C30.2936 73.445 30.2176 73.9478 29.9716 74.3771C30.3414 74.7057 30.5734 75.1583 30.6676 75.7346L30.8649 76.9426L29.4319 77.1767L29.2578 76.1108C29.2088 75.8108 29.1108 75.6079 28.9638 75.5022C28.809 75.3978 28.5776 75.3708 28.2697 75.4211L26.0787 75.779L25.0533 74.4144L28.0259 73.9289C28.3338 73.8786 28.5446 73.7793 28.6582 73.631C28.7639 73.4841 28.7922 73.2606 28.7432 72.9606ZM26.5404 71.0133C25.8299 71.1294 25.2371 70.9992 24.7622 70.6229C24.3517 70.2927 24.0967 69.8237 23.9974 69.2158C23.8697 68.4341 24.0586 67.7791 24.564 67.2507C24.985 66.801 25.5745 66.5142 26.3324 66.3904C27.2088 66.2472 27.9377 66.3673 28.5191 66.7506C29.0296 67.0968 29.3377 67.5936 29.4435 68.241C29.5467 68.8727 29.493 69.4124 29.2824 69.8602C29.6207 70.194 29.8336 70.6294 29.9213 71.1663L30.1187 72.3743L28.6856 72.6083L28.5115 71.5425C28.4625 71.2424 28.3645 71.0396 28.2176 70.9339C28.0627 70.8295 27.8313 70.8024 27.5234 70.8527L26.5404 71.0133ZM27.4692 69.3296C27.9113 69.2573 28.0943 68.9883 28.0182 68.5225C27.9228 67.9382 27.425 67.7196 26.525 67.8666C25.6644 68.0072 25.2837 68.3815 25.383 68.9894C25.4553 69.4316 25.7519 69.6101 26.273 69.525L27.4692 69.3296Z" fill="#9EFF1E"/>
<circle cx="116" cy="105" r="5" fill="#9EFF1E"/>
<circle cx="142" cy="105" r="5" fill="#9EFF1E"/>
<path d="M94.46 91V75.152H89.308V71.876H103.308V75.152H98.324V91H94.46ZM104.132 92.372V89.124C104.618 89.124 105.019 89.0867 105.336 89.012C105.654 88.9373 105.896 88.788 106.064 88.564C106.251 88.3213 106.372 87.976 106.428 87.528C106.503 87.0613 106.54 86.4547 106.54 85.708V71.876H110.404V87.444C110.404 88.564 110.274 89.46 110.012 90.132C109.751 90.7853 109.35 91.2707 108.808 91.588C108.286 91.924 107.632 92.1387 106.848 92.232C106.083 92.3253 105.178 92.372 104.132 92.372ZM112.414 91L117.286 71.876H124.034L128.878 91H125.014L123.95 87.136H117.258L116.25 91H112.414ZM117.874 84.028H123.39L121.234 75.012H120.058L117.874 84.028ZM130.987 91V71.876H138.463C139.993 71.876 141.272 72.072 142.299 72.464C143.344 72.856 144.119 73.5093 144.623 74.424C145.145 75.3387 145.407 76.58 145.407 78.148C145.407 79.5293 145.155 80.696 144.651 81.648C144.165 82.5813 143.419 83.272 142.411 83.72L145.407 91H141.347L138.827 84.588H134.851V91H130.987ZM134.851 81.424H138.547C139.256 81.424 139.825 81.2933 140.255 81.032C140.684 80.752 140.992 80.3693 141.179 79.884C141.365 79.38 141.459 78.8107 141.459 78.176C141.459 77.1307 141.216 76.3467 140.731 75.824C140.245 75.3013 139.489 75.04 138.463 75.04H134.851V81.424ZM148.241 91V71.876H160.953V75.096H152.105V79.744H159.273V82.908H152.105V87.78H160.953V91H148.241Z" fill="#9EFF1E"/>
<rect width="164" height="83" transform="translate(8 193)" fill="white"/>
<path d="M26.0044 220.27C25.5 217.5 27.8539 213.288 31.5044 211.77C35.6666 210.038 40.4885 211.238 42.5044 215.27C47.0044 224.271 48.5 246.73 51 250.5C53.5 254.27 54.2415 254.965 59.0044 254.77C63.3363 254.592 66.5044 253.539 66.5044 248.27C66.5044 243 61.0044 220.769 62.5044 217.77C64.0044 214.77 66.2859 212.262 70.0044 211.77C74.1607 211.22 77.8766 212.906 79.5044 216.77C85.5 231 83.5 247.501 90.5 251.5C96.4436 254.896 100.004 254 106.004 254" stroke="#0E2234" stroke-width="7"/>
<path d="M106.004 251V257H110.5C110.5 257 112 254.5 116 254.5C120 254.5 122 257.5 122 257.5H136C136 257.5 138.004 254.5 142.004 254.5C146.004 254.5 148.504 258 148.504 258H161.004V251H106.004Z" fill="#0E2234" stroke="#0E2234"/>
<path d="M30.0359 248.263C29.6077 248.917 29.4361 249.504 29.5213 250.025C29.5612 250.27 29.6652 250.46 29.8331 250.594C29.9918 250.722 30.1857 250.768 30.4146 250.73C30.6989 250.684 30.9051 250.557 31.0334 250.35C31.1603 250.134 31.2773 249.734 31.3844 249.149C31.4758 248.567 31.5942 248.15 31.7396 247.9C31.9737 247.497 32.3513 247.253 32.8724 247.168C33.6856 247.035 34.3904 247.305 34.9866 247.977C35.5147 248.58 35.8645 249.406 36.036 250.457C36.2501 251.767 36.0363 252.815 35.3946 253.601C34.914 254.182 34.2671 254.539 33.4538 254.672C32.8301 254.774 32.2615 254.717 31.7479 254.501L31.2197 253.128C31.8082 253.356 32.3985 253.422 32.9906 253.325C33.6144 253.223 34.0677 252.946 34.3506 252.495C34.6414 252.042 34.7255 251.441 34.603 250.691C34.4792 249.933 34.2666 249.376 33.9653 249.02C33.7058 248.722 33.4182 248.598 33.1024 248.65C32.9366 248.677 32.814 248.77 32.7345 248.929C32.6459 249.081 32.5614 249.383 32.4811 249.833C32.3485 250.56 32.1733 251.075 31.9553 251.378C31.658 251.792 31.2173 252.046 30.633 252.142C29.9382 252.255 29.3581 252.103 28.8925 251.684C28.5332 251.37 28.3141 250.972 28.2355 250.491C28.1039 249.685 28.2817 249.012 28.7687 248.47L30.0359 248.263ZM38.783 250.822C38.8216 251.059 38.7776 251.261 38.6508 251.428C38.5319 251.593 38.354 251.695 38.1172 251.734C37.8882 251.771 37.691 251.73 37.5257 251.611C37.3604 251.493 37.2584 251.315 37.2197 251.078C37.181 250.841 37.2178 250.644 37.3301 250.488C37.449 250.323 37.6269 250.221 37.8637 250.182C38.3927 250.096 38.6991 250.309 38.783 250.822ZM38.485 248.999C38.5237 249.236 38.4836 249.437 38.3647 249.602C38.2458 249.767 38.064 249.87 37.8192 249.91C37.306 249.994 37.0069 249.775 36.9217 249.254C36.8831 249.017 36.9199 248.821 37.0322 248.665C37.1511 248.499 37.3289 248.397 37.5658 248.358C38.0948 248.272 38.4012 248.485 38.485 248.999ZM30.798 241.54L30.6239 240.474L32.0569 240.24L32.2542 241.448C32.2981 241.716 32.3032 241.971 32.2695 242.211C33.0442 242.19 33.6939 242.396 34.2186 242.829C34.6882 243.222 34.9752 243.739 35.0797 244.379C35.1609 244.876 35.1139 245.382 34.9386 245.897L33.6359 246.11C33.7978 245.662 33.8465 245.241 33.782 244.846C33.7111 244.412 33.5142 244.099 33.1912 243.909C32.8749 243.709 32.468 243.65 31.9706 243.731L28.1335 244.358L27.4656 243.47L27.11 243.005L27.1219 243.003L27.1081 242.994L30.0807 242.508C30.3886 242.458 30.5994 242.358 30.713 242.21C30.8186 242.063 30.847 241.84 30.798 241.54ZM29.4779 233.458L29.3154 232.464L30.7484 232.229L30.9128 233.236C31.0147 233.86 31.0295 234.372 30.9572 234.773C30.8757 235.167 30.6877 235.555 30.3932 235.935C31.1781 236.82 31.6757 237.906 31.8859 239.193L32.1722 240.946L30.7392 241.18L30.451 239.415C30.224 238.026 29.6289 236.988 28.6658 236.302C27.8139 236.993 27.4506 237.721 27.5757 238.487C27.6788 239.118 28.1351 239.753 28.9446 240.391L27.63 240.606C26.7953 240.061 26.3096 239.37 26.1729 238.534C26.0723 237.918 26.1993 237.281 26.5539 236.623C26.9085 235.965 27.4635 235.344 28.219 234.758L28.8112 234.662C28.9976 234.761 29.2102 234.896 29.449 235.068C29.5869 234.721 29.5966 234.185 29.4779 233.458ZM32.5245 236.329C32.4858 236.092 32.5226 235.895 32.6349 235.739C32.7538 235.574 32.9317 235.472 33.1685 235.433C33.6975 235.347 34.0039 235.56 34.0878 236.073C34.1265 236.31 34.0864 236.511 33.9675 236.677C33.8486 236.842 33.6667 236.945 33.422 236.985C33.193 237.022 32.9959 236.981 32.8305 236.862C32.6652 236.743 32.5632 236.566 32.5245 236.329ZM24.3806 232.847C24.4193 233.084 24.3792 233.285 24.2603 233.45C24.1414 233.615 23.9596 233.718 23.7148 233.758C23.4859 233.795 23.2887 233.755 23.1234 233.636C22.958 233.517 22.856 233.339 22.8173 233.102C22.7786 232.865 22.8194 232.668 22.9396 232.511C23.0506 232.347 23.2245 232.245 23.4614 232.207C23.9904 232.12 24.2968 232.334 24.3806 232.847ZM24.0846 231.035C24.1233 231.272 24.0832 231.473 23.9643 231.638C23.8375 231.805 23.6557 231.907 23.4188 231.946C23.1899 231.983 22.9927 231.943 22.8274 231.824C22.6608 231.697 22.5588 231.519 22.5214 231.29C22.4827 231.053 22.5234 230.856 22.6436 230.699C22.7546 230.535 22.9285 230.433 23.1654 230.395C23.6944 230.308 24.0008 230.522 24.0846 231.035ZM28.7432 228.961L28.5691 227.895L30.0021 227.661L30.1994 228.869C30.2936 229.445 30.2176 229.948 29.9716 230.377C30.3414 230.706 30.5734 231.158 30.6676 231.735L30.8649 232.943L29.4319 233.177L29.2578 232.111C29.2088 231.811 29.1108 231.608 28.9638 231.502C28.809 231.398 28.5776 231.371 28.2697 231.421L26.0787 231.779L25.0533 230.414L28.0259 229.929C28.3338 229.879 28.5446 229.779 28.6582 229.631C28.7639 229.484 28.7922 229.261 28.7432 228.961ZM26.5404 227.013C25.8299 227.129 25.2371 226.999 24.7622 226.623C24.3517 226.293 24.0967 225.824 23.9974 225.216C23.8697 224.434 24.0586 223.779 24.564 223.251C24.985 222.801 25.5745 222.514 26.3324 222.39C27.2088 222.247 27.9377 222.367 28.5191 222.751C29.0296 223.097 29.3377 223.594 29.4435 224.241C29.5467 224.873 29.493 225.412 29.2824 225.86C29.6207 226.194 29.8336 226.629 29.9213 227.166L30.1187 228.374L28.6856 228.608L28.5115 227.542C28.4625 227.242 28.3645 227.04 28.2176 226.934C28.0627 226.829 27.8313 226.802 27.5234 226.853L26.5404 227.013ZM27.4692 225.33C27.9113 225.257 28.0943 224.988 28.0182 224.522C27.9228 223.938 27.425 223.72 26.525 223.867C25.6644 224.007 25.2837 224.381 25.383 224.989C25.4553 225.432 25.7519 225.61 26.273 225.525L27.4692 225.33Z" fill="#0E2234"/>
<circle cx="116" cy="261" r="5" fill="#0E2234"/>
<circle cx="142" cy="261" r="5" fill="#0E2234"/>
<path d="M94.46 247V231.152H89.308V227.876H103.308V231.152H98.324V247H94.46ZM104.132 248.372V245.124C104.618 245.124 105.019 245.087 105.336 245.012C105.654 244.937 105.896 244.788 106.064 244.564C106.251 244.321 106.372 243.976 106.428 243.528C106.503 243.061 106.54 242.455 106.54 241.708V227.876H110.404V243.444C110.404 244.564 110.274 245.46 110.012 246.132C109.751 246.785 109.35 247.271 108.808 247.588C108.286 247.924 107.632 248.139 106.848 248.232C106.083 248.325 105.178 248.372 104.132 248.372ZM112.414 247L117.286 227.876H124.034L128.878 247H125.014L123.95 243.136H117.258L116.25 247H112.414ZM117.874 240.028H123.39L121.234 231.012H120.058L117.874 240.028ZM130.987 247V227.876H138.463C139.993 227.876 141.272 228.072 142.299 228.464C143.344 228.856 144.119 229.509 144.623 230.424C145.145 231.339 145.407 232.58 145.407 234.148C145.407 235.529 145.155 236.696 144.651 237.648C144.165 238.581 143.419 239.272 142.411 239.72L145.407 247H141.347L138.827 240.588H134.851V247H130.987ZM134.851 237.424H138.547C139.256 237.424 139.825 237.293 140.255 237.032C140.684 236.752 140.992 236.369 141.179 235.884C141.365 235.38 141.459 234.811 141.459 234.176C141.459 233.131 141.216 232.347 140.731 231.824C140.245 231.301 139.489 231.04 138.463 231.04H134.851V237.424ZM148.241 247V227.876H160.953V231.096H152.105V235.744H159.273V238.908H152.105V243.78H160.953V247H148.241Z" fill="#0E2234"/>
<rect width="212" height="312" transform="translate(181)" fill="#252F3D"/>
<rect width="164" height="83" transform="translate(205 115)" fill="#252F3D"/>
<path d="M223.004 142.27C222.5 139.5 224.854 135.288 228.504 133.77C232.667 132.038 237.489 133.238 239.504 137.27C244.004 146.271 245.5 168.73 248 172.5C250.5 176.27 251.241 176.965 256.004 176.77C260.336 176.592 263.504 175.539 263.504 170.27C263.504 165 258.004 142.769 259.504 139.77C261.004 136.77 263.286 134.262 267.004 133.77C271.161 133.22 274.877 134.906 276.504 138.77C282.5 153 280.5 169.501 287.5 173.5C293.444 176.896 297.004 176 303.004 176" stroke="white" stroke-width="7"/>
<path d="M303.004 173V179H307.5C307.5 179 309 176.5 313 176.5C317 176.5 319 179.5 319 179.5H333C333 179.5 335.004 176.5 339.004 176.5C343.004 176.5 345.504 180 345.504 180H358.004V173H303.004Z" fill="white" stroke="white"/>
<path d="M227.036 170.263C226.608 170.917 226.436 171.504 226.521 172.025C226.561 172.27 226.665 172.46 226.833 172.594C226.992 172.722 227.186 172.768 227.415 172.73C227.699 172.684 227.905 172.557 228.033 172.35C228.16 172.134 228.277 171.734 228.384 171.149C228.476 170.567 228.594 170.15 228.74 169.9C228.974 169.497 229.351 169.253 229.872 169.168C230.686 169.035 231.39 169.305 231.987 169.977C232.515 170.58 232.864 171.406 233.036 172.457C233.25 173.767 233.036 174.815 232.395 175.601C231.914 176.182 231.267 176.539 230.454 176.672C229.83 176.774 229.261 176.717 228.748 176.501L228.22 175.128C228.808 175.356 229.398 175.422 229.991 175.325C230.614 175.223 231.068 174.946 231.351 174.495C231.641 174.042 231.726 173.441 231.603 172.691C231.479 171.933 231.267 171.376 230.965 171.02C230.706 170.722 230.418 170.598 230.102 170.65C229.937 170.677 229.814 170.77 229.735 170.929C229.646 171.081 229.561 171.383 229.481 171.833C229.349 172.56 229.173 173.075 228.955 173.378C228.658 173.792 228.217 174.046 227.633 174.142C226.938 174.255 226.358 174.103 225.893 173.684C225.533 173.37 225.314 172.972 225.235 172.491C225.104 171.685 225.282 171.012 225.769 170.47L227.036 170.263ZM235.783 172.822C235.822 173.059 235.778 173.261 235.651 173.428C235.532 173.593 235.354 173.695 235.117 173.734C234.888 173.771 234.691 173.73 234.526 173.611C234.36 173.493 234.258 173.315 234.22 173.078C234.181 172.841 234.218 172.644 234.33 172.488C234.449 172.323 234.627 172.221 234.864 172.182C235.393 172.096 235.699 172.309 235.783 172.822ZM235.485 170.999C235.524 171.236 235.484 171.437 235.365 171.602C235.246 171.767 235.064 171.87 234.819 171.91C234.306 171.994 234.007 171.775 233.922 171.254C233.883 171.017 233.92 170.821 234.032 170.665C234.151 170.499 234.329 170.397 234.566 170.358C235.095 170.272 235.401 170.485 235.485 170.999ZM227.798 163.54L227.624 162.474L229.057 162.24L229.254 163.448C229.298 163.716 229.303 163.971 229.269 164.211C230.044 164.19 230.694 164.396 231.219 164.829C231.688 165.222 231.975 165.739 232.08 166.379C232.161 166.876 232.114 167.382 231.939 167.897L230.636 168.11C230.798 167.662 230.847 167.241 230.782 166.846C230.711 166.412 230.514 166.099 230.191 165.909C229.875 165.709 229.468 165.65 228.971 165.731L225.133 166.358L224.466 165.47L224.11 165.005L224.122 165.003L224.108 164.994L227.081 164.508C227.389 164.458 227.599 164.358 227.713 164.21C227.819 164.063 227.847 163.84 227.798 163.54ZM226.478 155.458L226.315 154.464L227.748 154.229L227.913 155.236C228.015 155.86 228.03 156.372 227.957 156.773C227.876 157.167 227.688 157.555 227.393 157.935C228.178 158.82 228.676 159.906 228.886 161.193L229.172 162.946L227.739 163.18L227.451 161.415C227.224 160.026 226.629 158.988 225.666 158.302C224.814 158.993 224.451 159.721 224.576 160.487C224.679 161.118 225.135 161.753 225.945 162.391L224.63 162.606C223.795 162.061 223.31 161.37 223.173 160.534C223.072 159.918 223.199 159.281 223.554 158.623C223.908 157.965 224.464 157.344 225.219 156.758L225.811 156.662C225.998 156.761 226.21 156.896 226.449 157.068C226.587 156.721 226.597 156.185 226.478 155.458ZM229.524 158.329C229.486 158.092 229.523 157.895 229.635 157.739C229.754 157.574 229.932 157.472 230.169 157.433C230.698 157.347 231.004 157.56 231.088 158.073C231.126 158.31 231.086 158.511 230.967 158.677C230.849 158.842 230.667 158.945 230.422 158.985C230.193 159.022 229.996 158.981 229.831 158.862C229.665 158.743 229.563 158.566 229.524 158.329ZM221.381 154.847C221.419 155.084 221.379 155.285 221.26 155.45C221.141 155.615 220.96 155.718 220.715 155.758C220.486 155.795 220.289 155.755 220.123 155.636C219.958 155.517 219.856 155.339 219.817 155.102C219.779 154.865 219.819 154.668 219.94 154.511C220.051 154.347 220.225 154.245 220.461 154.207C220.99 154.12 221.297 154.334 221.381 154.847ZM221.085 153.035C221.123 153.272 221.083 153.473 220.964 153.638C220.838 153.805 220.656 153.907 220.419 153.946C220.19 153.983 219.993 153.943 219.827 153.824C219.661 153.697 219.559 153.519 219.521 153.29C219.483 153.053 219.523 152.856 219.644 152.699C219.755 152.535 219.929 152.433 220.165 152.395C220.694 152.308 221.001 152.522 221.085 153.035ZM225.743 150.961L225.569 149.895L227.002 149.661L227.199 150.869C227.294 151.445 227.218 151.948 226.972 152.377C227.341 152.706 227.573 153.158 227.668 153.735L227.865 154.943L226.432 155.177L226.258 154.111C226.209 153.811 226.111 153.608 225.964 153.502C225.809 153.398 225.578 153.371 225.27 153.421L223.079 153.779L222.053 152.414L225.026 151.929C225.334 151.879 225.545 151.779 225.658 151.631C225.764 151.484 225.792 151.261 225.743 150.961ZM223.54 149.013C222.83 149.129 222.237 148.999 221.762 148.623C221.352 148.293 221.097 147.824 220.997 147.216C220.87 146.434 221.059 145.779 221.564 145.251C221.985 144.801 222.574 144.514 223.332 144.39C224.209 144.247 224.938 144.367 225.519 144.751C226.03 145.097 226.338 145.594 226.443 146.241C226.547 146.873 226.493 147.412 226.282 147.86C226.621 148.194 226.834 148.629 226.921 149.166L227.119 150.374L225.686 150.608L225.512 149.542C225.463 149.242 225.365 149.04 225.218 148.934C225.063 148.829 224.831 148.802 224.523 148.853L223.54 149.013ZM224.469 147.33C224.911 147.257 225.094 146.988 225.018 146.522C224.923 145.938 224.425 145.72 223.525 145.867C222.664 146.007 222.284 146.381 222.383 146.989C222.455 147.432 222.752 147.61 223.273 147.525L224.469 147.33Z" fill="white"/>
<circle cx="313" cy="183" r="5" fill="white"/>
<circle cx="339" cy="183" r="5" fill="white"/>
<path d="M291.46 169V153.152H286.308V149.876H300.308V153.152H295.324V169H291.46ZM301.132 170.372V167.124C301.618 167.124 302.019 167.087 302.336 167.012C302.654 166.937 302.896 166.788 303.064 166.564C303.251 166.321 303.372 165.976 303.428 165.528C303.503 165.061 303.54 164.455 303.54 163.708V149.876H307.404V165.444C307.404 166.564 307.274 167.46 307.012 168.132C306.751 168.785 306.35 169.271 305.808 169.588C305.286 169.924 304.632 170.139 303.848 170.232C303.083 170.325 302.178 170.372 301.132 170.372ZM309.414 169L314.286 149.876H321.034L325.878 169H322.014L320.95 165.136H314.258L313.25 169H309.414ZM314.874 162.028H320.39L318.234 153.012H317.058L314.874 162.028ZM327.987 169V149.876H335.463C336.993 149.876 338.272 150.072 339.299 150.464C340.344 150.856 341.119 151.509 341.623 152.424C342.145 153.339 342.407 154.58 342.407 156.148C342.407 157.529 342.155 158.696 341.651 159.648C341.165 160.581 340.419 161.272 339.411 161.72L342.407 169H338.347L335.827 162.588H331.851V169H327.987ZM331.851 159.424H335.547C336.256 159.424 336.825 159.293 337.255 159.032C337.684 158.752 337.992 158.369 338.179 157.884C338.365 157.38 338.459 156.811 338.459 156.176C338.459 155.131 338.216 154.347 337.731 153.824C337.245 153.301 336.489 153.04 335.463 153.04H331.851V159.424ZM345.241 169V149.876H357.953V153.096H349.105V157.744H356.273V160.908H349.105V165.78H357.953V169H345.241Z" fill="white"/>
</g>
<defs>
<clipPath id="clip0_34_95">
<rect width="393" height="312" fill="white"/>
</clipPath>
</defs>
</svg>
